<svg width="48" height="48" viewBox="0 0 48 48" fill="none" xmlns="http://www.w3.org/2000/svg">
<path fill-rule="evenodd" clip-rule="evenodd" d="M15.5174 4L32 4C33.1046 4 34 4.89543 34 6C34 7.10457 33.1046 8 32 8H15.6C13.8868 8 12.7223 8.00156 11.8221 8.07511C10.9452 8.14675 10.4968 8.2766 10.184 8.43598C9.43139 8.81947 8.81947 9.43139 8.43598 10.184C8.2766 10.4968 8.14675 10.9452 8.07511 11.8221C8.00156 12.7223 8 13.8868 8 15.6V32.4C8 34.1132 8.00156 35.2778 8.07511 36.1779C8.14675 37.0548 8.2766 37.5032 8.43598 37.816C8.81947 38.5686 9.43139 39.1805 10.184 39.564C10.4968 39.7234 10.9452 39.8533 11.8221 39.9249C12.7223 39.9984 13.8868 40 15.6 40H32.4C34.1132 40 35.2778 39.9984 36.1779 39.9249C37.0548 39.8533 37.5032 39.7234 37.816 39.564C38.5686 39.1805 39.1805 38.5686 39.564 37.816C39.7234 37.5032 39.8533 37.0548 39.9249 36.1779C39.9984 35.2778 40 34.1132 40 32.4V24C40 22.8954 40.8954 22 42 22C43.1046 22 44 22.8954 44 24V32.4827C44 34.0926 44 35.4213 43.9116 36.5037C43.8198 37.6279 43.6226 38.6613 43.1281 39.6319C42.3611 41.1372 41.1372 42.3611 39.6319 43.1281C38.6613 43.6226 37.6279 43.8198 36.5037 43.9116C35.4213 44 34.0926 44 32.4827 44H15.5174C13.9074 44 12.5787 44 11.4964 43.9116C10.3722 43.8198 9.33875 43.6226 8.36808 43.1281C6.86278 42.3611 5.63894 41.1372 4.87195 39.6319C4.37737 38.6613 4.18024 37.6279 4.08839 36.5037C3.99995 35.4213 3.99998 34.0925 4 32.4826V15.5174C3.99998 13.9075 3.99995 12.5787 4.08839 11.4964C4.18024 10.3722 4.37737 9.33875 4.87195 8.36808C5.63894 6.86278 6.86278 5.63894 8.36808 4.87195C9.33875 4.37737 10.3722 4.18024 11.4964 4.08839C12.5787 3.99995 13.9075 3.99998 15.5174 4ZM42.5858 6.58579C43.3668 5.80474 44.6332 5.80474 45.4142 6.58579C46.1953 7.36684 46.1953 8.63317 45.4142 9.41422L25.4142 29.4142C24.6332 30.1953 23.3668 30.1953 22.5858 29.4142L16.5858 23.4142C15.8047 22.6332 15.8047 21.3668 16.5858 20.5858C17.3668 19.8047 18.6332 19.8047 19.4142 20.5858L24 25.1716L42.5858 6.58579Z" fill="#065F46"/>
<path fill-rule="evenodd" clip-rule="evenodd" d="M42.5858 6.58579C43.3668 5.80474 44.6332 5.80474 45.4142 6.58579C46.1953 7.36684 46.1953 8.63317 45.4142 9.41421L25.4142 29.4142C24.6332 30.1953 23.3668 30.1953 22.5858 29.4142L16.5858 23.4142C15.8047 22.6332 15.8047 21.3668 16.5858 20.5858C17.3668 19.8047 18.6332 19.8047 19.4142 20.5858L24 25.1716L42.5858 6.58579Z" fill="#022C22"/>
</svg>
