<svg width="64" height="64" viewBox="0 0 64 64" fill="none" xmlns="http://www.w3.org/2000/svg">
<path d="M32.001 4.00789C32.001 4.00789 48.5053 3.2699 57.2556 19.8H30.5967C30.5967 19.8 25.5656 19.6385 21.2679 25.7201C20.0334 28.2727 18.7064 30.9022 20.1956 36.0843C18.0503 32.4629 8.80664 16.4249 8.80664 16.4249C8.80664 16.4249 15.3266 4.66138 32.0008 4.00789H32.001Z" fill="#EF3F36"/>
<path d="M56.3988 45.972C56.3988 45.972 48.783 60.5876 30.0488 59.8649C32.3636 55.8745 43.3819 36.8611 43.3819 36.8611C43.3819 36.8611 46.044 32.6017 42.9036 25.8513C41.3062 23.5063 39.6781 21.0537 34.4315 19.7465C38.6522 19.7083 57.2091 19.7465 57.2091 19.7465C57.2091 19.7465 64.1609 31.2563 56.3988 45.972Z" fill="#FCD900"/>
<path d="M7.71862 46.0866C7.71862 46.0866 -1.17798 32.2088 8.8219 16.4014C11.129 20.3918 22.1474 39.4054 22.1474 39.4054C22.1474 39.4054 24.524 43.834 31.9545 44.4949C34.7864 44.2875 37.7338 44.1106 41.4995 40.2434C39.4235 43.9032 30.1101 59.8952 30.1101 59.8952C30.1101 59.8952 16.6227 60.1412 7.7184 46.0866H7.71862Z" fill="#61BC5B"/>
<path d="M30.041 60.0026L33.7909 44.4105C33.7909 44.4105 37.9114 44.0874 41.3683 40.3125C39.2231 44.0723 30.041 60.0026 30.041 60.0026V60.0026Z" fill="#5AB055"/>
<path d="M19.4395 32.178C19.4395 25.3047 25.0337 19.7305 31.9316 19.7305C38.8296 19.7305 44.4238 25.3047 44.4238 32.178C44.4238 39.0515 38.8296 44.6254 31.9316 44.6254C25.0337 44.6178 19.4395 39.0515 19.4395 32.178V32.178Z" fill="white"/>
<path d="M21.5303 32.1785C21.5303 26.4584 26.1832 21.8145 31.9317 21.8145C37.6723 21.8145 42.3328 26.4507 42.3328 32.1785C42.3328 37.8988 37.6802 42.5428 31.9317 42.5428C26.1908 42.5428 21.5303 37.8988 21.5303 32.1785V32.1785Z" fill="url(#paint0_linear_4002_512746)"/>
<path d="M57.2013 19.7535L41.7616 24.2666C41.7616 24.2666 39.4314 20.8605 34.4238 19.7535C38.7679 19.7303 57.2013 19.7535 57.2013 19.7535V19.7535Z" fill="#EACA05"/>
<path d="M19.8947 35.5154C17.7263 31.7711 8.80664 16.4248 8.80664 16.4248L20.2418 27.6961C20.2418 27.6961 19.0688 30.1027 19.5088 33.5471L19.8945 35.5154H19.8947Z" fill="#DF3A32"/>
<defs>
<linearGradient id="paint0_linear_4002_512746" x1="31.9311" y1="21.9608" x2="31.9311" y2="41.9188" gradientUnits="userSpaceOnUse">
<stop stop-color="#86BBE5"/>
<stop offset="1" stop-color="#1072BA"/>
</linearGradient>
</defs>
</svg>
