<svg width="64" height="64" viewBox="0 0 64 64" fill="none" xmlns="http://www.w3.org/2000/svg">
<path d="M54.5523 45.6719C53.8014 46.0621 53.027 46.4055 52.2336 46.7C49.7214 47.6351 47.0611 48.1093 44.3805 48.1C34.0336 48.1 25.0211 40.9906 25.0211 31.8469C25.0345 30.6225 25.374 29.4238 26.0046 28.3742C26.6351 27.3245 27.5339 26.4619 28.6086 25.875C19.2461 26.2688 16.8398 36.025 16.8398 41.7344C16.8398 57.9219 31.7367 59.5406 34.9523 59.5406C36.6805 59.5406 39.2836 59.0375 40.8586 58.5344L41.143 58.4469C47.1704 56.3639 52.3087 52.2903 55.7117 46.8969C55.8106 46.733 55.8531 46.5412 55.8325 46.3509C55.812 46.1606 55.7297 45.9823 55.5981 45.8433C55.4665 45.7043 55.293 45.6122 55.1041 45.5813C54.9152 45.5503 54.7214 45.5821 54.5523 45.6719Z" fill="url(#paint0_linear_4002_512781)"/>
<path opacity="0.35" d="M54.5523 45.6719C53.8014 46.0621 53.027 46.4055 52.2336 46.7C49.7214 47.6351 47.0611 48.1093 44.3805 48.1C34.0336 48.1 25.0211 40.9906 25.0211 31.8469C25.0345 30.6225 25.374 29.4238 26.0046 28.3742C26.6351 27.3245 27.5339 26.4619 28.6086 25.875C19.2461 26.2688 16.8398 36.025 16.8398 41.7344C16.8398 57.9219 31.7367 59.5406 34.9523 59.5406C36.6805 59.5406 39.2836 59.0375 40.8586 58.5344L41.143 58.4469C47.1704 56.3639 52.3087 52.2903 55.7117 46.8969C55.8106 46.733 55.8531 46.5412 55.8325 46.3509C55.812 46.1606 55.7297 45.9823 55.5981 45.8433C55.4665 45.7043 55.293 45.6122 55.1041 45.5813C54.9152 45.5503 54.7214 45.5821 54.5523 45.6719Z" fill="url(#paint1_radial_4002_512781)"/>
<path d="M27.1226 56.784C25.1755 55.5746 23.4877 53.9909 22.157 52.1246C20.6374 50.0447 19.5915 47.6575 19.0924 45.1304C18.5934 42.6033 18.6535 39.9977 19.2684 37.4963C19.8834 34.9949 21.0382 32.6584 22.652 30.6507C24.2658 28.6431 26.2994 27.0129 28.6101 25.8746C29.3101 25.5465 30.4695 24.9777 32.0226 24.9996C33.1155 25.0081 34.1917 25.2692 35.1669 25.7625C36.1422 26.2558 36.9901 26.968 37.6445 27.8434C38.5247 29.027 39.0071 30.4591 39.0226 31.934C39.0226 31.8902 44.382 14.5215 21.5226 14.5215C11.9195 14.5215 4.02265 23.6215 4.02265 31.6277C3.98445 35.8569 4.88863 40.0416 6.66952 43.8777C9.58605 50.0881 14.6813 55.0115 20.9881 57.7132C27.2949 60.415 34.3741 60.707 40.882 58.534C38.602 59.2541 36.1928 59.4705 33.821 59.1684C31.4491 58.8662 29.1712 58.0527 27.1445 56.784H27.1226Z" fill="url(#paint2_linear_4002_512781)"/>
<path opacity="0.41" d="M27.1226 56.784C25.1755 55.5746 23.4877 53.9909 22.157 52.1246C20.6374 50.0447 19.5915 47.6575 19.0924 45.1304C18.5934 42.6033 18.6535 39.9977 19.2684 37.4963C19.8834 34.9949 21.0382 32.6584 22.652 30.6507C24.2658 28.6431 26.2994 27.0129 28.6101 25.8746C29.3101 25.5465 30.4695 24.9777 32.0226 24.9996C33.1155 25.0081 34.1917 25.2692 35.1669 25.7625C36.1422 26.2558 36.9901 26.968 37.6445 27.8434C38.5247 29.027 39.0071 30.4591 39.0226 31.934C39.0226 31.8902 44.382 14.5215 21.5226 14.5215C11.9195 14.5215 4.02265 23.6215 4.02265 31.6277C3.98445 35.8569 4.88863 40.0416 6.66952 43.8777C9.58605 50.0881 14.6813 55.0115 20.9881 57.7132C27.2949 60.415 34.3741 60.707 40.882 58.534C38.602 59.2541 36.1928 59.4705 33.821 59.1684C31.4491 58.8662 29.1712 58.0527 27.1445 56.784H27.1226Z" fill="url(#paint3_radial_4002_512781)"/>
<path d="M37.3375 36.55C37.1406 36.7688 36.5938 37.0969 36.5938 37.775C36.5938 38.3438 36.9656 38.9125 37.6437 39.3719C40.7719 41.5594 46.7 41.2531 46.7219 41.2531C49.0539 41.2516 51.3428 40.6246 53.35 39.4375C55.3708 38.2555 57.0476 36.5658 58.2141 34.536C59.3805 32.5062 59.9962 30.2067 60 27.8656C60.0656 22.9656 58.25 19.7063 57.5281 18.2625C52.8687 9.20625 42.8719 4 32 4C24.6417 3.99927 17.5788 6.89515 12.3389 12.0613C7.09909 17.2275 4.10348 24.2486 4 31.6063C4.10938 23.6219 12.05 17.1688 21.5 17.1688C22.2656 17.1688 26.6406 17.2344 30.6875 19.3563C33.5306 20.7691 35.885 23.0016 37.4469 25.7656C38.7812 28.0844 39.0219 31.0375 39.0219 32.2188C39.0219 33.4 38.4312 35.1281 37.3156 36.5719L37.3375 36.55Z" fill="url(#paint4_radial_4002_512781)"/>
<path d="M37.3375 36.55C37.1406 36.7688 36.5938 37.0969 36.5938 37.775C36.5938 38.3438 36.9656 38.9125 37.6437 39.3719C40.7719 41.5594 46.7 41.2531 46.7219 41.2531C49.0539 41.2516 51.3428 40.6246 53.35 39.4375C55.3708 38.2555 57.0476 36.5658 58.2141 34.536C59.3805 32.5062 59.9962 30.2067 60 27.8656C60.0656 22.9656 58.25 19.7063 57.5281 18.2625C52.8687 9.20625 42.8719 4 32 4C24.6417 3.99927 17.5788 6.89515 12.3389 12.0613C7.09909 17.2275 4.10348 24.2486 4 31.6063C4.10938 23.6219 12.05 17.1688 21.5 17.1688C22.2656 17.1688 26.6406 17.2344 30.6875 19.3563C33.5306 20.7691 35.885 23.0016 37.4469 25.7656C38.7812 28.0844 39.0219 31.0375 39.0219 32.2188C39.0219 33.4 38.4312 35.1281 37.3156 36.5719L37.3375 36.55Z" fill="url(#paint5_radial_4002_512781)"/>
<defs>
<linearGradient id="paint0_linear_4002_512781" x1="16.8398" y1="42.7188" x2="55.8648" y2="42.7188" gradientUnits="userSpaceOnUse">
<stop stop-color="#0C59A4"/>
<stop offset="1" stop-color="#114A8B"/>
</linearGradient>
<radialGradient id="paint1_radial_4002_512781" cx="0" cy="0" r="1" gradientUnits="userSpaceOnUse" gradientTransform="translate(38.3867 43.013) scale(20.8688 19.8253)">
<stop offset="0.7" stop-opacity="0"/>
<stop offset="0.9" stop-opacity="0.5"/>
<stop offset="1"/>
</radialGradient>
<linearGradient id="paint2_linear_4002_512781" x1="37.4039" y1="25.7871" x2="13.057" y2="52.3215" gradientUnits="userSpaceOnUse">
<stop stop-color="#1B9DE2"/>
<stop offset="0.2" stop-color="#1595DF"/>
<stop offset="0.7" stop-color="#0680D7"/>
<stop offset="1" stop-color="#0078D4"/>
</linearGradient>
<radialGradient id="paint3_radial_4002_512781" cx="0" cy="0" r="1" gradientUnits="userSpaceOnUse" gradientTransform="translate(19.4347 47.5171) rotate(-81.3844) scale(31.3657 25.3403)">
<stop offset="0.8" stop-opacity="0"/>
<stop offset="0.9" stop-opacity="0.5"/>
<stop offset="1"/>
</radialGradient>
<radialGradient id="paint4_radial_4002_512781" cx="0" cy="0" r="1" gradientUnits="userSpaceOnUse" gradientTransform="translate(9.66344 14.3504) rotate(92.2906) scale(44.3104 94.372)">
<stop stop-color="#35C1F1"/>
<stop offset="0.1" stop-color="#34C1ED"/>
<stop offset="0.2" stop-color="#2FC2DF"/>
<stop offset="0.3" stop-color="#2BC3D2"/>
<stop offset="0.7" stop-color="#36C752"/>
</radialGradient>
<radialGradient id="paint5_radial_4002_512781" cx="0" cy="0" r="1" gradientUnits="userSpaceOnUse" gradientTransform="translate(56.5131 20.9094) rotate(73.7398) scale(21.2844 17.3085)">
<stop stop-color="#66EB6E"/>
<stop offset="1" stop-color="#66EB6E" stop-opacity="0"/>
</radialGradient>
</defs>
</svg>
