<svg width="64" height="64" viewBox="0 0 64 64" fill="none" xmlns="http://www.w3.org/2000/svg">
<path d="M57.9811 21.453C56.7631 18.5148 54.2945 15.3428 52.3568 14.3408C53.9341 17.4403 54.8464 20.5492 55.1952 22.8689C55.1952 22.8689 55.1952 22.8852 55.201 22.9156C52.0313 14.9955 46.6555 11.8013 42.2654 4.84814C42.0426 4.49738 41.8209 4.14663 41.604 3.77132C41.4815 3.55969 41.3823 3.36795 41.296 3.18672C41.114 2.83515 40.9735 2.46358 40.8771 2.0795C40.8779 2.06126 40.8719 2.04339 40.8602 2.02935C40.8486 2.0153 40.8322 2.00609 40.8141 2.0035C40.797 1.99883 40.7788 1.99883 40.7616 2.0035C40.757 2.00562 40.7527 2.00837 40.7488 2.01169C40.7418 2.01169 40.7348 2.01987 40.7278 2.02221L40.7395 2.00701C33.6965 6.14126 31.3073 13.7889 31.088 17.6157C28.2736 17.8086 25.5826 18.8472 23.366 20.5959C23.1344 20.3996 22.8921 20.2162 22.6404 20.0464C22.0016 17.8054 21.9746 15.4337 22.5622 13.1786C19.6818 14.4939 17.4419 16.5693 15.8133 18.4061H15.8005C14.6887 16.9948 14.7668 12.3403 14.8298 11.3687C14.817 11.3079 14.0015 11.7931 13.8965 11.8668C12.9155 12.5682 11.9984 13.3554 11.1561 14.2192C10.1976 15.1931 9.32193 16.2455 8.53819 17.3655C6.73505 19.9265 5.45628 22.8202 4.77581 25.8795C4.76298 25.9403 4.75131 26.0034 4.73848 26.0654C4.68598 26.3121 4.49582 27.5503 4.46198 27.8192V27.8812C4.21408 29.1605 4.05968 30.4563 4 31.7582V31.902C4 47.4195 16.5529 60 32.0364 60C45.9041 60 57.4176 49.9099 59.6727 36.6559C59.7194 36.297 59.7579 35.9345 59.7999 35.5721C60.3575 30.7527 59.738 25.6878 57.9811 21.453ZM25.6655 43.4478C25.7961 43.5097 25.9198 43.5787 26.054 43.6395L26.0726 43.6512C25.9385 43.5857 25.802 43.5179 25.6666 43.4478H25.6655ZM55.2033 22.9285V22.9016V22.932V22.9285Z" fill="url(#paint0_linear_4002_512748)"/>
<path d="M57.9815 21.453C56.7635 18.5148 54.295 15.3428 52.3572 14.3408C53.9345 17.4403 54.8468 20.5492 55.1956 22.8689V22.9262C57.8415 30.1143 56.3996 37.4241 54.323 41.8904C51.1101 48.8003 43.3321 55.8833 31.156 55.5384C18.0116 55.1642 6.42349 45.3769 4.2594 32.5685C3.86508 30.5469 4.2594 29.5216 4.45772 27.8812C4.21623 29.1451 4.12407 29.511 4.00391 31.7582V31.902C4.00391 47.4195 16.5568 60 32.0403 60C45.9081 60 57.4215 49.9099 59.6766 36.656C59.7233 36.297 59.7618 35.9346 59.8038 35.5721C60.3579 30.7527 59.7384 25.6878 57.9815 21.453Z" fill="url(#paint1_radial_4002_512748)"/>
<path d="M57.9815 21.453C56.7635 18.5148 54.295 15.3428 52.3572 14.3408C53.9345 17.4403 54.8468 20.5492 55.1956 22.8689V22.9262C57.8415 30.1143 56.3996 37.4241 54.323 41.8904C51.1101 48.8003 43.3321 55.8833 31.156 55.5384C18.0116 55.1642 6.42349 45.3769 4.2594 32.5685C3.86508 30.5469 4.2594 29.5216 4.45772 27.8812C4.21623 29.1451 4.12407 29.511 4.00391 31.7582V31.902C4.00391 47.4195 16.5568 60 32.0403 60C45.9081 60 57.4215 49.9099 59.6766 36.656C59.7233 36.297 59.7618 35.9346 59.8038 35.5721C60.3579 30.7527 59.7384 25.6878 57.9815 21.453Z" fill="url(#paint2_radial_4002_512748)"/>
<path d="M44.3562 24.7546C44.418 24.7978 44.4728 24.8411 44.5311 24.8844C43.8275 23.6322 42.9509 22.486 41.9272 21.4797C33.2125 12.7458 39.643 2.54116 40.7268 2.02204L40.7384 2.00684C33.6955 6.14109 31.3062 13.7888 31.0869 17.6155C31.4136 17.5933 31.7391 17.5652 32.0715 17.5652C37.3272 17.5652 41.9051 20.4625 44.3562 24.7546Z" fill="url(#paint3_radial_4002_512748)"/>
<path d="M32.0893 26.4998C32.0438 27.2013 29.5798 29.6098 28.7177 29.6098C20.745 29.6098 19.4512 34.4433 19.4512 34.4433C19.8012 38.5144 22.6314 41.8664 26.0555 43.6401C26.2118 43.7208 26.3693 43.7933 26.5221 43.8657C26.7963 43.9827 27.0716 44.0996 27.3458 44.2036C28.52 44.6187 29.7497 44.8552 30.9938 44.9052C44.9677 45.5622 47.6766 28.16 37.5911 23.1068C40.1728 22.6567 42.8538 23.6984 44.3505 24.7518C41.9006 20.4597 37.3216 17.5625 32.0659 17.5625C31.7334 17.5625 31.408 17.5906 31.0813 17.6128C28.269 17.8081 25.5805 18.8478 23.3664 20.5965C23.7945 20.9602 24.2775 21.4442 25.2937 22.4474C27.1999 24.3321 32.0788 26.2718 32.0893 26.4998Z" fill="url(#paint4_radial_4002_512748)"/>
<path d="M32.0893 26.4998C32.0438 27.2013 29.5798 29.6098 28.7177 29.6098C20.745 29.6098 19.4512 34.4433 19.4512 34.4433C19.8012 38.5144 22.6314 41.8664 26.0555 43.6401C26.2118 43.7208 26.3693 43.7933 26.5221 43.8657C26.7963 43.9827 27.0716 44.0996 27.3458 44.2036C28.52 44.6187 29.7497 44.8552 30.9938 44.9052C44.9677 45.5622 47.6766 28.16 37.5911 23.1068C40.1728 22.6567 42.8538 23.6984 44.3505 24.7518C41.9006 20.4597 37.3216 17.5625 32.0659 17.5625C31.7334 17.5625 31.408 17.5906 31.0813 17.6128C28.269 17.8081 25.5805 18.8478 23.3664 20.5965C23.7945 20.9602 24.2775 21.4442 25.2937 22.4474C27.1999 24.3321 32.0788 26.2718 32.0893 26.4998Z" fill="url(#paint5_radial_4002_512748)"/>
<path d="M22.0631 19.6619C22.2906 19.8092 22.4773 19.9331 22.6465 20.0465C22.0077 17.8055 21.9807 15.4338 22.5683 13.1787C19.6879 14.494 17.448 16.5694 15.8193 18.4062C15.9512 18.4026 20.018 18.329 22.0631 19.6619Z" fill="url(#paint6_radial_4002_512748)"/>
<path d="M4.2594 32.5681C6.4235 45.3766 18.0116 55.1638 31.1654 55.538C43.3415 55.8829 51.1147 48.7999 54.3323 41.89C56.4089 37.4226 57.8508 30.114 55.2049 22.9258V22.872C55.2049 22.879 55.2049 22.8884 55.2108 22.9188C56.2047 29.4277 52.902 35.7331 47.7385 39.9971C47.7332 40.0091 47.7281 40.0212 47.7233 40.0334C37.6612 48.2446 28.033 44.9872 26.0835 43.6578C25.9482 43.5924 25.8117 43.5246 25.6764 43.4544C19.8094 40.6484 17.3863 35.2876 17.9055 30.6939C12.9531 30.6939 11.2638 26.5058 11.2638 26.5058C11.2638 26.5058 15.711 23.328 21.5722 26.092C27.0005 28.6525 32.0987 26.507 32.0987 26.5058C32.0882 26.2779 27.2093 24.3323 25.3066 22.4534C24.2904 21.4503 23.8074 20.9662 23.3793 20.6026C23.1476 20.4063 22.9054 20.2228 22.6536 20.0531C22.4868 19.9362 22.3037 19.8193 22.0703 19.6684C20.0252 18.3356 15.9584 18.4092 15.8242 18.4127H15.8114C14.6996 17.0015 14.7777 12.347 14.8407 11.3754C14.8279 11.3146 14.0124 11.7998 13.9074 11.8734C12.9264 12.5749 12.0093 13.3621 11.167 14.2259C10.2085 15.1998 9.33284 16.2522 8.5491 17.3721C6.74596 19.9331 5.46719 22.8269 4.78672 25.8862C4.76455 25.94 3.76709 30.3045 4.2594 32.5681Z" fill="url(#paint7_radial_4002_512748)"/>
<path d="M41.9268 21.4799C42.9504 22.4862 43.827 23.6324 44.5307 24.8845C44.6765 24.9943 44.8167 25.1114 44.9507 25.2353C51.3065 31.0999 47.9816 39.4024 47.7284 39.9986C52.8919 35.7346 56.1946 29.4292 55.2007 22.9203C52.031 14.9955 46.6551 11.8013 42.2651 4.84814C42.0423 4.49738 41.8206 4.14663 41.6036 3.77132C41.4811 3.55969 41.382 3.36795 41.2956 3.18672C41.1137 2.83515 40.9732 2.46358 40.8768 2.0795C40.8776 2.06126 40.8716 2.04339 40.8599 2.02935C40.8483 2.0153 40.8318 2.00609 40.8138 2.0035C40.7966 1.99883 40.7785 1.99883 40.7613 2.0035C40.7567 2.00562 40.7524 2.00837 40.7485 2.01169C40.7415 2.01169 40.7345 2.01987 40.7275 2.02221C39.6425 2.54133 33.2121 12.746 41.9268 21.4799Z" fill="url(#paint8_radial_4002_512748)"/>
<path d="M44.9486 25.2292C44.8146 25.1053 44.6744 24.9882 44.5286 24.8785C44.4715 24.8352 44.412 24.7919 44.3536 24.7487C42.8569 23.6964 40.176 22.6535 37.5942 23.1036C47.6785 28.1569 44.9708 45.5591 30.9969 44.902C29.7528 44.852 28.5231 44.6156 27.3489 44.2005C27.0747 44.0976 26.7994 43.9842 26.5252 43.8626C26.3666 43.7901 26.2091 43.7176 26.0586 43.6369L26.0773 43.6486C28.0267 44.9815 37.6549 48.2389 47.717 40.0241C47.717 40.0241 47.7229 40.0089 47.7322 39.9879C47.9819 39.4021 51.3067 31.0997 44.9486 25.2292Z" fill="url(#paint9_radial_4002_512748)"/>
<path d="M19.4506 34.443C19.4506 34.443 20.7444 29.6096 28.7172 29.6096C29.5793 29.6096 32.0432 27.1987 32.0887 26.4995C32.1342 25.8004 26.9906 28.6462 21.5622 26.0857C15.7011 23.3217 11.2539 26.4995 11.2539 26.4995C11.2539 26.4995 12.9432 30.6876 17.8955 30.6876C17.3764 35.2813 19.7995 40.6374 25.6664 43.4481C25.7971 43.5101 25.9208 43.5791 26.0549 43.6399C22.6309 41.8697 19.8041 38.5141 19.4506 34.443Z" fill="url(#paint10_radial_4002_512748)"/>
<path d="M57.9811 21.453C56.7631 18.5148 54.2945 15.3428 52.3568 14.3408C53.9341 17.4403 54.8464 20.5492 55.1952 22.8689C55.1952 22.8689 55.1952 22.8852 55.201 22.9156C52.0313 14.9955 46.6555 11.8013 42.2654 4.84814C42.0426 4.49738 41.8209 4.14663 41.604 3.77132C41.4815 3.55969 41.3823 3.36795 41.296 3.18672C41.114 2.83515 40.9735 2.46358 40.8771 2.0795C40.8779 2.06126 40.8719 2.04339 40.8602 2.02935C40.8486 2.0153 40.8322 2.00609 40.8141 2.0035C40.797 1.99883 40.7788 1.99883 40.7616 2.0035C40.757 2.00562 40.7527 2.00837 40.7488 2.01169C40.7418 2.01169 40.7348 2.01987 40.7278 2.02221L40.7395 2.00701C33.6965 6.14126 31.3073 13.7889 31.088 17.6157C31.4146 17.5935 31.7401 17.5654 32.0726 17.5654C37.3283 17.5654 41.9061 20.4627 44.3572 24.7548C42.8604 23.7025 40.1795 22.6596 37.5977 23.1097C47.6821 28.1629 44.9743 45.5652 31.0005 44.9081C29.7563 44.8581 28.5267 44.6216 27.3524 44.2066C27.0783 44.1037 26.8029 43.9903 26.5288 43.8687C26.3701 43.7962 26.2126 43.7237 26.0621 43.643L26.0808 43.6547C25.9455 43.5892 25.809 43.5214 25.6736 43.4513C25.8043 43.5132 25.928 43.5822 26.0621 43.643C22.6311 41.8693 19.8043 38.5138 19.4508 34.4427C19.4508 34.4427 20.7446 29.6092 28.7174 29.6092C29.5795 29.6092 32.0434 27.1984 32.0889 26.4992C32.0784 26.2712 27.1996 24.3257 25.2968 22.4468C24.2807 21.4436 23.7977 20.9596 23.3695 20.5959C23.1379 20.3996 22.8956 20.2162 22.6439 20.0464C22.0051 17.8054 21.9781 15.4337 22.5657 13.1786C19.6853 14.4939 17.4454 16.5693 15.8168 18.4061H15.804C14.6922 16.9948 14.7703 12.3403 14.8333 11.3687C14.8205 11.3079 14.005 11.7931 13.9 11.8668C12.919 12.5682 12.0019 13.3554 11.1596 14.2192C10.2011 15.1931 9.32543 16.2455 8.54169 17.3655C6.73855 19.9265 5.45978 22.8202 4.77931 25.8795C4.76648 25.9403 4.75481 26.0034 4.74198 26.0654C4.68948 26.3121 4.45149 27.5678 4.41882 27.8367C4.41882 27.8169 4.41882 27.8578 4.41882 27.8367C4.20038 29.1342 4.06052 30.4438 4 31.7582V31.902C4 47.4195 16.5529 60 32.0364 60C45.9041 60 57.4176 49.9099 59.6727 36.6559C59.7194 36.297 59.7579 35.9345 59.7999 35.5721C60.3575 30.7527 59.738 25.6878 57.9811 21.453ZM55.1998 22.8957V22.9261V22.8957Z" fill="url(#paint11_linear_4002_512748)"/>
<defs>
<linearGradient id="paint0_linear_4002_512748" x1="54.27" y1="10.9852" x2="7.62785" y2="55.8875" gradientUnits="userSpaceOnUse">
<stop offset="0.05" stop-color="#FFF44F"/>
<stop offset="0.11" stop-color="#FFE847"/>
<stop offset="0.22" stop-color="#FFC830"/>
<stop offset="0.37" stop-color="#FF980E"/>
<stop offset="0.4" stop-color="#FF8B16"/>
<stop offset="0.46" stop-color="#FF672A"/>
<stop offset="0.53" stop-color="#FF3647"/>
<stop offset="0.7" stop-color="#E31587"/>
</linearGradient>
<radialGradient id="paint1_radial_4002_512748" cx="0" cy="0" r="1" gradientUnits="userSpaceOnUse" gradientTransform="translate(52.1192 8.43758) scale(58.4493 58.5775)">
<stop offset="0.13" stop-color="#FFBD4F"/>
<stop offset="0.19" stop-color="#FFAC31"/>
<stop offset="0.25" stop-color="#FF9D17"/>
<stop offset="0.28" stop-color="#FF980E"/>
<stop offset="0.4" stop-color="#FF563B"/>
<stop offset="0.47" stop-color="#FF3750"/>
<stop offset="0.71" stop-color="#F5156C"/>
<stop offset="0.78" stop-color="#EB0878"/>
<stop offset="0.86" stop-color="#E50080"/>
</radialGradient>
<radialGradient id="paint2_radial_4002_512748" cx="0" cy="0" r="1" gradientUnits="userSpaceOnUse" gradientTransform="translate(30.7617 32.3849) scale(58.4493 58.5775)">
<stop offset="0.3" stop-color="#960E18"/>
<stop offset="0.35" stop-color="#B11927" stop-opacity="0.74"/>
<stop offset="0.43" stop-color="#DB293D" stop-opacity="0.34"/>
<stop offset="0.5" stop-color="#F5334B" stop-opacity="0.09"/>
<stop offset="0.53" stop-color="#FF3750" stop-opacity="0"/>
</radialGradient>
<radialGradient id="paint3_radial_4002_512748" cx="0" cy="0" r="1" gradientUnits="userSpaceOnUse" gradientTransform="translate(37.809 -4.8563) scale(42.344 42.4369)">
<stop offset="0.13" stop-color="#FFF44F"/>
<stop offset="0.25" stop-color="#FFDC3E"/>
<stop offset="0.51" stop-color="#FF9D12"/>
<stop offset="0.53" stop-color="#FF980E"/>
</radialGradient>
<radialGradient id="paint4_radial_4002_512748" cx="0" cy="0" r="1" gradientUnits="userSpaceOnUse" gradientTransform="translate(24.2973 47.6867) scale(27.8299 27.891)">
<stop offset="0.35" stop-color="#3A8EE6"/>
<stop offset="0.47" stop-color="#5C79F0"/>
<stop offset="0.67" stop-color="#9059FF"/>
<stop offset="1" stop-color="#C139E6"/>
</radialGradient>
<radialGradient id="paint5_radial_4002_512748" cx="0" cy="0" r="1" gradientUnits="userSpaceOnUse" gradientTransform="translate(31.6011 25.4237) rotate(-13.9265) scale(14.7463 17.357)">
<stop offset="0.21" stop-color="#9059FF" stop-opacity="0"/>
<stop offset="0.28" stop-color="#8C4FF3" stop-opacity="0.06"/>
<stop offset="0.75" stop-color="#7716A8" stop-opacity="0.45"/>
<stop offset="0.97" stop-color="#6E008B" stop-opacity="0.6"/>
</radialGradient>
<radialGradient id="paint6_radial_4002_512748" cx="0" cy="0" r="1" gradientUnits="userSpaceOnUse" gradientTransform="translate(30.023 6.04081) scale(20.0217 20.0656)">
<stop stop-color="#FFE226"/>
<stop offset="0.12" stop-color="#FFDB27"/>
<stop offset="0.3" stop-color="#FFC82A"/>
<stop offset="0.5" stop-color="#FFA930"/>
<stop offset="0.73" stop-color="#FF7E37"/>
<stop offset="0.79" stop-color="#FF7139"/>
</radialGradient>
<radialGradient id="paint7_radial_4002_512748" cx="0" cy="0" r="1" gradientUnits="userSpaceOnUse" gradientTransform="translate(45.7611 -6.68625) scale(85.4217 85.6092)">
<stop offset="0.11" stop-color="#FFF44F"/>
<stop offset="0.46" stop-color="#FF980E"/>
<stop offset="0.62" stop-color="#FF5634"/>
<stop offset="0.72" stop-color="#FF3647"/>
<stop offset="0.9" stop-color="#E31587"/>
</radialGradient>
<radialGradient id="paint8_radial_4002_512748" cx="0" cy="0" r="1" gradientUnits="userSpaceOnUse" gradientTransform="translate(37.5033 2.66749) rotate(84.2447) scale(62.3992 40.9086)">
<stop stop-color="#FFF44F"/>
<stop offset="0.06" stop-color="#FFE847"/>
<stop offset="0.17" stop-color="#FFC830"/>
<stop offset="0.3" stop-color="#FF980E"/>
<stop offset="0.36" stop-color="#FF8B16"/>
<stop offset="0.45" stop-color="#FF672A"/>
<stop offset="0.57" stop-color="#FF3647"/>
<stop offset="0.74" stop-color="#E31587"/>
</radialGradient>
<radialGradient id="paint9_radial_4002_512748" cx="0" cy="0" r="1" gradientUnits="userSpaceOnUse" gradientTransform="translate(29.5515 13.4719) scale(53.3289 53.446)">
<stop offset="0.14" stop-color="#FFF44F"/>
<stop offset="0.48" stop-color="#FF980E"/>
<stop offset="0.59" stop-color="#FF5634"/>
<stop offset="0.66" stop-color="#FF3647"/>
<stop offset="0.9" stop-color="#E31587"/>
</radialGradient>
<radialGradient id="paint10_radial_4002_512748" cx="0" cy="0" r="1" gradientUnits="userSpaceOnUse" gradientTransform="translate(43.629 16.6012) scale(58.3688 58.4969)">
<stop offset="0.09" stop-color="#FFF44F"/>
<stop offset="0.23" stop-color="#FFE141"/>
<stop offset="0.51" stop-color="#FFAF1E"/>
<stop offset="0.63" stop-color="#FF980E"/>
</radialGradient>
<linearGradient id="paint11_linear_4002_512748" x1="53.7101" y1="10.7444" x2="14.0209" y2="50.3478" gradientUnits="userSpaceOnUse">
<stop offset="0.17" stop-color="#FFF44F" stop-opacity="0.8"/>
<stop offset="0.27" stop-color="#FFF44F" stop-opacity="0.63"/>
<stop offset="0.49" stop-color="#FFF44F" stop-opacity="0.22"/>
<stop offset="0.6" stop-color="#FFF44F" stop-opacity="0"/>
</linearGradient>
</defs>
</svg>
