<svg width="225" height="48" viewBox="0 0 225 48" fill="none" xmlns="http://www.w3.org/2000/svg">
<path fill-rule="evenodd" clip-rule="evenodd" d="M27.0429 18.2934C27.9854 18.8694 28.2825 20.1004 27.7066 21.0429C26.8814 22.3932 26.6727 23.7929 26.7507 25.36C26.7904 26.1592 26.9035 26.9793 27.0435 27.8597C27.077 28.0699 27.1126 28.2871 27.149 28.5089C27.259 29.1801 27.376 29.8934 27.4602 30.5822C27.6864 32.4313 27.7485 34.5665 26.7661 36.6358C25.7655 38.7435 23.8493 40.4472 20.8276 41.8207C19.822 42.2778 18.6363 41.8332 18.1793 40.8276C17.7222 39.822 18.1668 38.6363 19.1724 38.1793C21.6507 37.0528 22.6845 35.9065 23.1526 34.9204C23.639 33.896 23.6886 32.6937 23.4898 31.0678C23.4163 30.4671 23.3187 29.8712 23.2126 29.224C23.1737 28.9865 23.1336 28.7421 23.0932 28.4879C22.948 27.5753 22.8065 26.5814 22.7556 25.5587C22.6523 23.482 22.9186 21.2068 24.2934 18.9571C24.8694 18.0146 26.1004 17.7174 27.0429 18.2934Z" fill="#064E3B"/>
<path fill-rule="evenodd" clip-rule="evenodd" d="M40 6C40 6 40.0224 7.52912 39.9981 8.08696C39.782 13.0581 38.4497 16.1788 36.0142 18.6143C35.962 18.6665 35.907 18.7157 35.8494 18.7618C33.4372 20.6916 30.1978 21.7819 26.1051 21.9973C25.5685 22.0256 25.043 21.8367 24.6472 21.4731C24.2514 21.1096 24.0185 20.6021 24.0011 20.065C23.8961 16.8334 24.7727 13.6457 26.5153 10.9222C26.5742 10.8302 26.6404 10.7433 26.7134 10.6622C27.7455 9.51539 29.0534 8.37842 30.9026 7.51347C32.7412 6.65351 35.014 6.10931 37.926 6.00146C38.484 5.98079 40 6 40 6Z" fill="#065F46"/>
<path fill-rule="evenodd" clip-rule="evenodd" d="M12 40C12 38.8954 12.8954 38 14 38H34C35.1046 38 36 38.8954 36 40C36 41.1046 35.1046 42 34 42H14C12.8954 42 12 41.1046 12 40Z" fill="#022C22"/>
<path fill-rule="evenodd" clip-rule="evenodd" d="M7.64842 15.2311C13.6493 14.1596 17.4363 15.1898 20.1763 17.1825C22.9045 19.1666 24.4679 22.4792 25.4974 25.5675C25.6788 26.1118 25.6178 26.7077 25.3298 27.2039C25.0419 27.7 24.5548 28.0487 23.9922 28.1612C19.8655 28.9865 16.2971 29.0972 13.0783 27.3752C10.0536 25.8515 7.58701 22.7121 6.08665 17.7823C5.92019 17.2354 5.5 15.5 5.5 15.5C5.5 15.5 7.08562 15.3316 7.64842 15.2311Z" fill="#047857"/>
<path d="M219.952 33.49L215.532 28.004L213.582 29.928V33.49H209.526V14.198H213.582V25.118L219.51 19.502H224.346L218.522 25.43L224.866 33.49H219.952Z" fill="#022C22"/>
<path d="M201.026 33.698C196.476 33.698 193.226 30.708 193.226 26.496C193.226 22.284 196.476 19.294 201.026 19.294C203.964 19.294 206.278 20.568 207.292 22.856L204.146 24.546C203.392 23.22 202.274 22.622 201 22.622C198.946 22.622 197.334 24.052 197.334 26.496C197.334 28.94 198.946 30.37 201 30.37C202.274 30.37 203.392 29.798 204.146 28.446L207.292 30.162C206.278 32.398 203.964 33.698 201.026 33.698Z" fill="#022C22"/>
<path d="M184.91 30.448C186.392 30.448 187.458 30.006 188.42 29.096L190.578 31.436C189.278 32.918 187.328 33.698 184.806 33.698C179.97 33.698 176.824 30.656 176.824 26.496C176.824 22.31 179.996 19.294 184.312 19.294C188.264 19.294 191.514 21.894 191.54 26.366L181.192 28.368C181.79 29.746 183.09 30.448 184.91 30.448ZM184.312 22.362C182.284 22.362 180.88 23.714 180.802 26.08L187.614 24.754C187.224 23.324 186.002 22.362 184.312 22.362Z" fill="#022C22"/>
<path d="M168.237 19.294C171.539 19.294 174.035 21.218 174.035 25.482V33.49H169.979V26.106C169.979 23.844 168.939 22.804 167.145 22.804C165.195 22.804 163.791 24 163.791 26.574V33.49H159.735V14.198H163.791V20.958C164.883 19.866 166.443 19.294 168.237 19.294Z" fill="#022C22"/>
<path d="M149.663 33.802C144.021 33.802 139.809 29.876 139.809 24.39C139.809 18.904 144.021 14.978 149.689 14.978C152.835 14.978 155.461 16.122 157.177 18.202L154.473 20.698C153.251 19.294 151.717 18.566 149.897 18.566C146.491 18.566 144.073 20.958 144.073 24.39C144.073 27.822 146.491 30.214 149.897 30.214C151.717 30.214 153.251 29.486 154.473 28.056L157.177 30.552C155.461 32.658 152.835 33.802 149.663 33.802Z" fill="#022C22"/>
<path d="M131.192 19.294C134.494 19.294 136.99 21.218 136.99 25.482V33.49H132.934V26.106C132.934 23.844 131.894 22.804 130.1 22.804C128.15 22.804 126.746 24 126.746 26.574V33.49H122.69V19.502H126.564V21.14C127.656 19.944 129.294 19.294 131.192 19.294Z" fill="#022C22"/>
<path d="M113.334 30.448C114.816 30.448 115.882 30.006 116.844 29.096L119.002 31.436C117.702 32.918 115.752 33.698 113.23 33.698C108.394 33.698 105.248 30.656 105.248 26.496C105.248 22.31 108.42 19.294 112.736 19.294C116.688 19.294 119.938 21.894 119.964 26.366L109.616 28.368C110.214 29.746 111.514 30.448 113.334 30.448ZM112.736 22.362C110.708 22.362 109.304 23.714 109.226 26.08L116.038 24.754C115.648 23.324 114.426 22.362 112.736 22.362Z" fill="#022C22"/>
<path d="M96.9313 30.448C98.4133 30.448 99.4793 30.006 100.441 29.096L102.599 31.436C101.299 32.918 99.3493 33.698 96.8273 33.698C91.9913 33.698 88.8453 30.656 88.8453 26.496C88.8453 22.31 92.0173 19.294 96.3333 19.294C100.285 19.294 103.535 21.894 103.561 26.366L93.2133 28.368C93.8113 29.746 95.1113 30.448 96.9313 30.448ZM96.3333 22.362C94.3053 22.362 92.9013 23.714 92.8233 26.08L99.6353 24.754C99.2453 23.324 98.0233 22.362 96.3333 22.362Z" fill="#022C22"/>
<path d="M82.7906 21.348C83.7786 19.996 85.4426 19.294 87.6006 19.294V23.038C87.2626 23.012 87.0026 22.986 86.6906 22.986C84.4546 22.986 82.9726 24.208 82.9726 26.886V33.49H78.9166V19.502H82.7906V21.348Z" fill="#022C22"/>
<path d="M71.442 29.044V24.104H75.29V33.49H72.118V32.398C70.818 33.36 69.154 33.802 67.23 33.802C62.264 33.802 58 30.526 58 24.546C58 18.904 62.212 14.978 68.01 14.978C71.208 14.978 73.86 16.07 75.628 18.124L72.924 20.62C71.598 19.216 70.064 18.566 68.218 18.566C64.682 18.566 62.264 20.932 62.264 24.52C62.264 28.368 64.838 30.292 67.724 30.292C69.102 30.292 70.402 29.902 71.442 29.044Z" fill="#022C22"/>
</svg>
