<svg height="36" viewBox="0 0 566 129" fill="none" xmlns="http://www.w3.org/2000/svg">
<path d="M555.29 89L543.45 74.344L537.498 79.976V89H529.498V41.512H537.498V70.184L554.074 54.824H563.674L549.402 69.16L565.018 89H555.29Z" fill="white"/>
<path d="M508.303 89.448C497.487 89.448 489.807 82.152 489.807 71.912C489.807 61.672 497.487 54.44 508.303 54.44C514.959 54.44 520.271 57.192 522.895 62.376L516.751 65.96C514.703 62.696 511.631 61.224 508.239 61.224C502.351 61.224 497.871 65.32 497.871 71.912C497.871 78.568 502.351 82.6 508.239 82.6C511.631 82.6 514.703 81.128 516.751 77.864L522.895 81.448C520.271 86.568 514.959 89.448 508.303 89.448Z" fill="white"/>
<path d="M469.129 82.664C472.969 82.664 475.913 81.448 478.409 78.952L482.633 83.88C479.625 87.528 474.825 89.448 468.937 89.448C457.481 89.448 450.057 82.088 450.057 71.912C450.057 61.736 457.481 54.44 467.657 54.44C477.193 54.44 484.873 60.84 484.937 71.528L458.761 76.648C460.425 80.552 464.137 82.664 469.129 82.664ZM467.657 60.84C461.833 60.84 457.801 64.936 457.801 71.464V71.528L477.129 67.816C476.041 63.656 472.457 60.84 467.657 60.84Z" fill="white"/>
<path d="M428.14 54.44C436.332 54.44 442.412 59.112 442.412 69.416V89H434.412V70.44C434.412 64.36 431.404 61.416 426.284 61.416C420.588 61.416 416.748 64.872 416.748 71.72V89H408.748V41.512H416.748V58.792C419.372 55.976 423.404 54.44 428.14 54.44Z" fill="white"/>
<path d="M383.752 89.64C370.056 89.64 359.816 79.976 359.816 66.6C359.816 53.224 370.056 43.56 383.816 43.56C391.112 43.56 397.384 46.184 401.544 51.048L396.168 56.104C392.904 52.584 388.872 50.856 384.2 50.856C374.92 50.856 368.2 57.384 368.2 66.6C368.2 75.816 374.92 82.344 384.2 82.344C388.872 82.344 392.904 80.616 396.168 77.032L401.544 82.152C397.384 87.016 391.112 89.64 383.752 89.64Z" fill="white"/>
<path d="M337.827 54.44C346.019 54.44 352.099 59.112 352.099 69.416V89H344.099V70.44C344.099 64.36 341.091 61.416 335.971 61.416C330.275 61.416 326.435 64.872 326.435 71.72V89H318.435V54.824H326.051V59.24C328.675 56.104 332.835 54.44 337.827 54.44Z" fill="white"/>
<path d="M294.942 82.664C298.782 82.664 301.726 81.448 304.222 78.952L308.446 83.88C305.438 87.528 300.638 89.448 294.75 89.448C283.294 89.448 275.87 82.088 275.87 71.912C275.87 61.736 283.294 54.44 293.47 54.44C303.006 54.44 310.686 60.84 310.75 71.528L284.574 76.648C286.238 80.552 289.95 82.664 294.942 82.664ZM293.47 60.84C287.646 60.84 283.614 64.936 283.614 71.464V71.528L302.942 67.816C301.854 63.656 298.27 60.84 293.47 60.84Z" fill="white"/>
<path d="M255.192 82.664C259.032 82.664 261.976 81.448 264.472 78.952L268.696 83.88C265.688 87.528 260.888 89.448 255 89.448C243.544 89.448 236.12 82.088 236.12 71.912C236.12 61.736 243.544 54.44 253.72 54.44C263.256 54.44 270.936 60.84 271 71.528L244.824 76.648C246.488 80.552 250.2 82.664 255.192 82.664ZM253.72 60.84C247.896 60.84 243.864 64.936 243.864 71.464V71.528L263.192 67.816C262.104 63.656 258.52 60.84 253.72 60.84Z" fill="white"/>
<path d="M220.301 59.816C222.605 56.232 226.765 54.44 232.461 54.44V62.056C231.757 61.928 231.181 61.864 230.605 61.864C224.525 61.864 220.685 65.448 220.685 72.424V89H212.685V54.824H220.301V59.816Z" fill="white"/>
<path d="M194.608 79.016V66.088H202.48V89H195.632V86.376C192.432 88.552 188.272 89.64 183.6 89.64C171.44 89.64 160.816 81.576 160.816 66.92C160.816 53.224 171.056 43.56 185.072 43.56C192.56 43.56 198.832 46.056 203.056 50.856L197.808 55.976C194.288 52.456 190.256 50.856 185.456 50.856C175.92 50.856 169.2 57.32 169.2 66.856C169.2 77.16 176.432 82.536 184.368 82.536C188.08 82.536 191.792 81.384 194.608 79.016Z" fill="white"/>
<path fill-rule="evenodd" clip-rule="evenodd" d="M65.4353 0.921095C67.0957 0.919477 68.6154 0.917996 70.0342 1.00083L70.0341 17.603C70.0339 22.9519 70.0338 27.4126 70.5017 30.9535C70.9955 34.6911 72.0819 38.0655 74.7471 40.7771C77.4122 43.4888 80.7288 44.5942 84.4023 45.0967C87.8825 45.5728 92.2666 45.5726 97.5239 45.5724L113.842 45.5724C113.923 47.016 113.922 48.5624 113.92 50.2518L113.92 77.1641C113.92 88.105 113.92 96.771 113.024 103.553C112.101 110.533 110.158 116.183 105.779 120.638C101.4 125.093 95.8475 127.071 88.9872 128.009C82.3214 128.921 73.8038 128.921 63.0505 128.921H62.3899C51.6367 128.921 43.1192 128.921 36.4533 128.009C29.593 127.071 24.0403 125.093 19.6614 120.638C15.2824 116.183 13.3391 110.533 12.4167 103.553C11.5205 96.771 11.5206 88.1048 11.5207 77.1639V52.6782C11.5206 41.7373 11.5205 33.0713 12.4167 26.289C13.3391 19.3091 15.2824 13.6596 19.6614 9.20424C24.0403 4.7489 29.593 2.77166 36.4533 1.83323C43.1193 0.92138 51.6367 0.921455 62.3901 0.92155L65.4353 0.921095ZM73.2393 70.1162C74.7137 67.8781 77.6955 67.2775 79.8974 68.7844C82.0947 70.288 82.6758 73.3161 81.2044 75.5497L64.8447 100.383C64.2093 101.349 63.4783 102.46 62.7293 103.305C61.8465 104.302 60.3348 105.64 58.0283 105.834C55.7213 106.029 54.0141 104.961 52.9823 104.125C52.1072 103.415 51.2072 102.441 50.4251 101.595L41.8273 92.301C40.0146 90.3415 40.1032 87.2578 42.0265 85.4096C43.9541 83.5571 46.9928 83.6487 48.8095 85.6126L57.1157 94.5914L73.2393 70.1162Z" fill="white"/>
<path d="M83.8818 8.69519C82.0601 6.83811 80.478 5.22537 78.8113 3.97296L78.8112 17.2935C78.8112 23.0327 78.8205 26.8879 79.2005 29.7636C79.5635 32.511 80.1909 33.6867 80.9534 34.4626C81.7159 35.2384 82.8716 35.8768 85.5718 36.2461C88.3982 36.6328 92.1874 36.6423 97.8282 36.6423H110.921C109.69 34.9466 108.105 33.337 106.279 31.4836L83.8818 8.69519Z" fill="white"/>
</svg>
