<svg width="193" height="48" viewBox="0 0 193 48" fill="none" xmlns="http://www.w3.org/2000/svg">
<path fill-rule="evenodd" clip-rule="evenodd" d="M11.6381 9L24 9C24.8284 9 25.5 9.67157 25.5 10.5C25.5 11.3284 24.8284 12 24 12H11.7C10.4151 12 9.54169 12.0012 8.86656 12.0563C8.20894 12.1101 7.87263 12.2074 7.63803 12.327C7.07354 12.6146 6.6146 13.0735 6.32698 13.638C6.20745 13.8726 6.11006 14.2089 6.05633 14.8666C6.00117 15.5417 6 16.4151 6 17.7V30.3C6 31.5849 6.00117 32.4583 6.05633 33.1334C6.11006 33.7911 6.20745 34.1274 6.32698 34.362C6.6146 34.9265 7.07354 35.3854 7.63803 35.673C7.87263 35.7926 8.20894 35.8899 8.86656 35.9437C9.54169 35.9988 10.4151 36 11.7 36H24.3C25.5849 36 26.4583 35.9988 27.1334 35.9437C27.7911 35.8899 28.1274 35.7926 28.362 35.673C28.9265 35.3854 29.3854 34.9265 29.673 34.362C29.7926 34.1274 29.8899 33.7911 29.9437 33.1334C29.9988 32.4583 30 31.5849 30 30.3V24C30 23.1716 30.6716 22.5 31.5 22.5C32.3284 22.5 33 23.1716 33 24V30.362C33 31.5694 33 32.566 32.9337 33.3777C32.8648 34.2209 32.717 34.9959 32.346 35.7239C31.7708 36.8529 30.8529 37.7708 29.7239 38.346C28.9959 38.717 28.2209 38.8648 27.3777 38.9337C26.566 39 25.5694 39 24.362 39H11.638C10.4306 39 9.43405 39 8.62226 38.9337C7.77912 38.8648 7.00406 38.717 6.27606 38.346C5.14709 37.7708 4.2292 36.8529 3.65396 35.7239C3.28303 34.9959 3.13518 34.2209 3.06629 33.3777C2.99997 32.566 2.99998 31.5694 3 30.362V17.6381C2.99998 16.4306 2.99997 15.4341 3.06629 14.6223C3.13518 13.7791 3.28303 13.0041 3.65396 12.2761C4.2292 11.1471 5.14709 10.2292 6.27606 9.65396C7.00406 9.28303 7.77912 9.13518 8.62226 9.06629C9.43406 8.99997 10.4306 8.99998 11.6381 9ZM31.9393 10.9393C32.5251 10.3536 33.4749 10.3536 34.0607 10.9393C34.6465 11.5251 34.6465 12.4749 34.0607 13.0607L19.0607 28.0607C18.4749 28.6465 17.5251 28.6465 16.9393 28.0607L12.4393 23.5607C11.8536 22.9749 11.8536 22.0251 12.4393 21.4393C13.0251 20.8536 13.9749 20.8536 14.5607 21.4393L18 24.8787L31.9393 10.9393Z" fill="#065F46"/>
<path fill-rule="evenodd" clip-rule="evenodd" d="M31.9393 10.9393C32.5251 10.3536 33.4749 10.3536 34.0607 10.9393C34.6464 11.5251 34.6464 12.4749 34.0607 13.0607L19.0607 28.0607C18.4749 28.6465 17.5251 28.6465 16.9393 28.0607L12.4393 23.5607C11.8536 22.9749 11.8536 22.0251 12.4393 21.4393C13.0251 20.8536 13.9749 20.8536 14.5607 21.4393L18 24.8787L31.9393 10.9393Z" fill="#022C22"/>
<path d="M188.671 32.3602L184.777 27.5273L183.059 29.2223V32.3602H179.486V15.365H183.059V24.9849L188.282 20.0375H192.542L187.411 25.2598L193 32.3602H188.671Z" fill="#022C22"/>
<path d="M171.998 32.5435C167.99 32.5435 165.127 29.9094 165.127 26.1989C165.127 22.4883 167.99 19.8543 171.998 19.8543C174.587 19.8543 176.625 20.9766 177.518 22.9922L174.747 24.481C174.083 23.3129 173.098 22.7861 171.976 22.7861C170.166 22.7861 168.746 24.0459 168.746 26.1989C168.746 28.3519 170.166 29.6117 171.976 29.6117C173.098 29.6117 174.083 29.1078 174.747 27.9167L177.518 29.4284C176.625 31.3982 174.587 32.5435 171.998 32.5435Z" fill="#022C22"/>
<path d="M157.801 29.6804C159.106 29.6804 160.045 29.291 160.893 28.4893L162.794 30.5508C161.649 31.8563 159.931 32.5435 157.709 32.5435C153.449 32.5435 150.677 29.8636 150.677 26.1989C150.677 22.5112 153.472 19.8543 157.274 19.8543C160.756 19.8543 163.619 22.1448 163.642 26.0844L154.525 27.848C155.052 29.062 156.197 29.6804 157.801 29.6804ZM157.274 22.5571C155.487 22.5571 154.251 23.7481 154.182 25.8324L160.183 24.6643C159.839 23.4045 158.763 22.5571 157.274 22.5571Z" fill="#022C22"/>
<path d="M143.113 19.8543C146.022 19.8543 148.221 21.5492 148.221 25.3056V32.3602H144.648V25.8553C144.648 23.8626 143.731 22.9464 142.151 22.9464C140.433 22.9464 139.196 24 139.196 26.2676V32.3602H135.623V15.365H139.196V21.3202C140.158 20.3582 141.532 19.8543 143.113 19.8543Z" fill="#022C22"/>
<path d="M126.75 32.6351C121.78 32.6351 118.069 29.1765 118.069 24.3436C118.069 19.5107 121.78 16.0521 126.773 16.0521C129.544 16.0521 131.858 17.0599 133.369 18.8923L130.987 21.0911C129.911 19.8543 128.559 19.213 126.956 19.213C123.955 19.213 121.825 21.3202 121.825 24.3436C121.825 27.367 123.955 29.4742 126.956 29.4742C128.559 29.4742 129.911 28.8329 130.987 27.5731L133.369 29.772C131.858 31.6273 129.544 32.6351 126.75 32.6351Z" fill="#022C22"/>
<path d="M110.478 19.8543C113.387 19.8543 115.586 21.5492 115.586 25.3056V32.3602H112.013V25.8553C112.013 23.8626 111.097 22.9464 109.516 22.9464C107.798 22.9464 106.562 24 106.562 26.2676V32.3602H102.988V20.0375H106.401V21.4805C107.363 20.4269 108.806 19.8543 110.478 19.8543Z" fill="#022C22"/>
<path d="M94.746 29.6804C96.0516 29.6804 96.9907 29.291 97.8381 28.4893L99.7392 30.5508C98.594 31.8563 96.8761 32.5435 94.6544 32.5435C90.3941 32.5435 87.6227 29.8636 87.6227 26.1989C87.6227 22.5112 90.417 19.8543 94.2192 19.8543C97.7007 19.8543 100.564 22.1448 100.587 26.0844L91.4707 27.848C91.9975 29.062 93.1427 29.6804 94.746 29.6804ZM94.2192 22.5571C92.4326 22.5571 91.1958 23.7481 91.1271 25.8324L97.1281 24.6643C96.7845 23.4045 95.708 22.5571 94.2192 22.5571Z" fill="#022C22"/>
<path d="M80.2964 29.6804C81.602 29.6804 82.5411 29.291 83.3886 28.4893L85.2896 30.5508C84.1444 31.8563 82.4266 32.5435 80.2048 32.5435C75.9446 32.5435 73.1731 29.8636 73.1731 26.1989C73.1731 22.5112 75.9675 19.8543 79.7696 19.8543C83.2511 19.8543 86.1142 22.1448 86.1371 26.0844L77.0211 27.848C77.5479 29.062 78.6931 29.6804 80.2964 29.6804ZM79.7696 22.5571C77.9831 22.5571 76.7462 23.7481 76.6775 25.8324L82.6785 24.6643C82.3349 23.4045 81.2584 22.5571 79.7696 22.5571Z" fill="#022C22"/>
<path d="M67.8392 21.6638C68.7096 20.4727 70.1755 19.8543 72.0766 19.8543V23.1526C71.7788 23.1297 71.5498 23.1068 71.2749 23.1068C69.3051 23.1068 67.9996 24.1833 67.9996 26.5425V32.3602H64.4265V20.0375H67.8392V21.6638Z" fill="#022C22"/>
<path d="M57.8417 28.4435V24.0916H61.2316V32.3602H58.4372V31.3982C57.292 32.2457 55.8261 32.6351 54.1311 32.6351C49.7564 32.6351 46 29.7491 46 24.481C46 19.5107 49.7105 16.0521 54.8183 16.0521C57.6355 16.0521 59.9718 17.0141 61.5293 18.8236L59.1472 21.0224C57.9791 19.7856 56.6277 19.213 55.0015 19.213C51.8865 19.213 49.7564 21.2973 49.7564 24.4581C49.7564 27.848 52.0239 29.5429 54.5663 29.5429C55.7803 29.5429 56.9255 29.1994 57.8417 28.4435Z" fill="#022C22"/>
</svg>
