<svg width="172" height="33" viewBox="0 0 172 33" fill="none" xmlns="http://www.w3.org/2000/svg">
<path d="M21.2903 2.44363C20.5683 1.70769 19.997 1.12524 19.2532 0.811785C18.5094 0.498326 17.7006 0.499114 16.6786 0.50011L15.9174 0.500224C13.229 0.5002 11.0996 0.500181 9.43315 0.728144C7.71807 0.962752 6.32991 1.45706 5.23517 2.5709C4.14043 3.68473 3.6546 5.09711 3.42401 6.8421C3.19996 8.53766 3.19997 10.7042 3.2 13.4394V19.5608C3.19997 22.296 3.19996 24.4626 3.42401 26.1581C3.6546 27.9031 4.14043 29.3155 5.23517 30.4293C6.32991 31.5432 7.71807 32.0375 9.43315 32.2721C11.0996 32.5 13.2289 32.5 15.9172 32.5H16.0824C18.7707 32.5 20.9002 32.5 22.5666 32.2721C24.2817 32.0375 25.6699 31.5432 26.7646 30.4293C27.8593 29.3155 28.3452 27.9031 28.5758 26.1581C28.7998 24.4626 28.7998 22.2961 28.7998 19.5609L28.7999 12.8328C28.8009 11.793 28.8016 10.9701 28.4936 10.2133C28.1855 9.45659 27.613 8.87525 26.8897 8.14073L21.2903 2.44363Z" fill="#D0D5DD"/>
<path d="M28.7803 11.6627C28.7505 11.1352 28.6765 10.6626 28.4935 10.2132C28.1854 9.45649 27.613 8.87516 26.8897 8.14063L21.2902 2.44354C20.5683 1.7076 19.9969 1.12515 19.2532 0.811689C18.8115 0.625572 18.347 0.55024 17.8285 0.519958L17.8285 4.6704C17.8285 6.00766 17.8284 7.12277 17.9454 8.00802C18.0689 8.9424 18.3405 9.786 19.0068 10.4639C19.6731 11.1418 20.5022 11.4182 21.4206 11.5438C22.2906 11.6628 23.3866 11.6628 24.7009 11.6627L28.7803 11.6627Z" fill="#047857"/>
<path d="M20.2942 17.4659C19.7437 17.0892 18.9983 17.2393 18.6296 17.7989L14.5988 23.9177L12.5222 21.673C12.068 21.182 11.3084 21.1591 10.8264 21.6222C10.3456 22.0843 10.3235 22.8552 10.7766 23.3451L12.9261 25.6686C13.1216 25.8802 13.3466 26.1236 13.5654 26.3009C13.8234 26.51 14.2502 26.777 14.8269 26.7284C15.4035 26.6799 15.7814 26.3454 16.0022 26.0962C16.1894 25.8848 16.3721 25.6071 16.531 25.3657L20.6209 19.1572C20.9888 18.5988 20.8435 17.8418 20.2942 17.4659Z" fill="#047857"/>
<path d="M166.578 24.3L163.178 20.08L161.678 21.56V24.3H158.558V9.46002H161.678V17.86L166.238 13.54H169.958L165.478 18.1L170.358 24.3H166.578Z" fill="#047857"/>
<path d="M152.02 24.46C148.52 24.46 146.02 22.16 146.02 18.92C146.02 15.68 148.52 13.38 152.02 13.38C154.28 13.38 156.06 14.36 156.84 16.12L154.42 17.42C153.84 16.4 152.98 15.94 152 15.94C150.42 15.94 149.18 17.04 149.18 18.92C149.18 20.8 150.42 21.9 152 21.9C152.98 21.9 153.84 21.46 154.42 20.42L156.84 21.74C156.06 23.46 154.28 24.46 152.02 24.46Z" fill="#047857"/>
<path d="M139.623 21.96C140.763 21.96 141.583 21.62 142.323 20.92L143.983 22.72C142.983 23.86 141.483 24.46 139.543 24.46C135.823 24.46 133.403 22.12 133.403 18.92C133.403 15.7 135.843 13.38 139.163 13.38C142.203 13.38 144.703 15.38 144.723 18.82L136.763 20.36C137.223 21.42 138.223 21.96 139.623 21.96ZM139.163 15.74C137.603 15.74 136.523 16.78 136.463 18.6L141.703 17.58C141.403 16.48 140.463 15.74 139.163 15.74Z" fill="#047857"/>
<path d="M126.798 13.38C129.338 13.38 131.258 14.86 131.258 18.14V24.3H128.138V18.62C128.138 16.88 127.338 16.08 125.958 16.08C124.458 16.08 123.378 17 123.378 18.98V24.3H120.258V9.46002H123.378V14.66C124.218 13.82 125.418 13.38 126.798 13.38Z" fill="#047857"/>
<path d="M112.51 24.54C108.17 24.54 104.93 21.52 104.93 17.3C104.93 13.08 108.17 10.06 112.53 10.06C114.95 10.06 116.97 10.94 118.29 12.54L116.21 14.46C115.27 13.38 114.09 12.82 112.69 12.82C110.07 12.82 108.21 14.66 108.21 17.3C108.21 19.94 110.07 21.78 112.69 21.78C114.09 21.78 115.27 21.22 116.21 20.12L118.29 22.04C116.97 23.66 114.95 24.54 112.51 24.54Z" fill="#047857"/>
<path d="M98.3016 13.38C100.842 13.38 102.762 14.86 102.762 18.14V24.3H99.6416V18.62C99.6416 16.88 98.8416 16.08 97.4616 16.08C95.9616 16.08 94.8816 17 94.8816 18.98V24.3H91.7616V13.54H94.7416V14.8C95.5816 13.88 96.8416 13.38 98.3016 13.38Z" fill="#047857"/>
<path d="M84.5644 21.96C85.7044 21.96 86.5244 21.62 87.2644 20.92L88.9244 22.72C87.9244 23.86 86.4244 24.46 84.4844 24.46C80.7644 24.46 78.3444 22.12 78.3444 18.92C78.3444 15.7 80.7844 13.38 84.1044 13.38C87.1444 13.38 89.6444 15.38 89.6644 18.82L81.7044 20.36C82.1644 21.42 83.1644 21.96 84.5644 21.96ZM84.1044 15.74C82.5444 15.74 81.4644 16.78 81.4044 18.6L86.6444 17.58C86.3444 16.48 85.4044 15.74 84.1044 15.74Z" fill="#047857"/>
<path d="M71.9472 21.96C73.0872 21.96 73.9072 21.62 74.6472 20.92L76.3072 22.72C75.3072 23.86 73.8072 24.46 71.8672 24.46C68.1472 24.46 65.7272 22.12 65.7272 18.92C65.7272 15.7 68.1672 13.38 71.4872 13.38C74.5272 13.38 77.0272 15.38 77.0472 18.82L69.0872 20.36C69.5472 21.42 70.5472 21.96 71.9472 21.96ZM71.4872 15.74C69.9272 15.74 68.8472 16.78 68.7872 18.6L74.0272 17.58C73.7272 16.48 72.7872 15.74 71.4872 15.74Z" fill="#047857"/>
<path d="M61.0697 14.96C61.8297 13.92 63.1097 13.38 64.7697 13.38V16.26C64.5097 16.24 64.3097 16.22 64.0697 16.22C62.3497 16.22 61.2097 17.16 61.2097 19.22V24.3H58.0897V13.54H61.0697V14.96Z" fill="#047857"/>
<path d="M52.34 20.88V17.08H55.3V24.3H52.86V23.46C51.86 24.2 50.58 24.54 49.1 24.54C45.28 24.54 42 22.02 42 17.42C42 13.08 45.24 10.06 49.7 10.06C52.16 10.06 54.2 10.9 55.56 12.48L53.48 14.4C52.46 13.32 51.28 12.82 49.86 12.82C47.14 12.82 45.28 14.64 45.28 17.4C45.28 20.36 47.26 21.84 49.48 21.84C50.54 21.84 51.54 21.54 52.34 20.88Z" fill="#047857"/>
</svg>
