<svg width="225" height="48" viewBox="0 0 225 48" fill="none" xmlns="http://www.w3.org/2000/svg">
<path fill-rule="evenodd" clip-rule="evenodd" d="M15.5174 4L32 4C33.1046 4 34 4.89543 34 6C34 7.10457 33.1046 8 32 8H15.6C13.8868 8 12.7223 8.00156 11.8221 8.07511C10.9452 8.14675 10.4968 8.2766 10.184 8.43598C9.43139 8.81947 8.81947 9.43139 8.43598 10.184C8.2766 10.4968 8.14675 10.9452 8.07511 11.8221C8.00156 12.7223 8 13.8868 8 15.6V32.4C8 34.1132 8.00156 35.2778 8.07511 36.1779C8.14675 37.0548 8.2766 37.5032 8.43598 37.816C8.81947 38.5686 9.43139 39.1805 10.184 39.564C10.4968 39.7234 10.9452 39.8533 11.8221 39.9249C12.7223 39.9984 13.8868 40 15.6 40H32.4C34.1132 40 35.2778 39.9984 36.1779 39.9249C37.0548 39.8533 37.5032 39.7234 37.816 39.564C38.5686 39.1805 39.1805 38.5686 39.564 37.816C39.7234 37.5032 39.8533 37.0548 39.9249 36.1779C39.9984 35.2778 40 34.1132 40 32.4V24C40 22.8954 40.8954 22 42 22C43.1046 22 44 22.8954 44 24V32.4827C44 34.0926 44 35.4213 43.9116 36.5037C43.8198 37.6279 43.6226 38.6613 43.1281 39.6319C42.3611 41.1372 41.1372 42.3611 39.6319 43.1281C38.6613 43.6226 37.6279 43.8198 36.5037 43.9116C35.4213 44 34.0926 44 32.4827 44H15.5174C13.9074 44 12.5787 44 11.4964 43.9116C10.3722 43.8198 9.33875 43.6226 8.36808 43.1281C6.86278 42.3611 5.63894 41.1372 4.87195 39.6319C4.37737 38.6613 4.18024 37.6279 4.08839 36.5037C3.99995 35.4213 3.99998 34.0925 4 32.4826V15.5174C3.99998 13.9075 3.99995 12.5787 4.08839 11.4964C4.18024 10.3722 4.37737 9.33875 4.87195 8.36808C5.63894 6.86278 6.86278 5.63894 8.36808 4.87195C9.33875 4.37737 10.3722 4.18024 11.4964 4.08839C12.5787 3.99995 13.9075 3.99998 15.5174 4Z" fill="white" fill-opacity="0.8"/>
<path fill-rule="evenodd" clip-rule="evenodd" d="M42.5858 6.58579C43.3668 5.80474 44.6332 5.80474 45.4142 6.58579C46.1953 7.36684 46.1953 8.63317 45.4142 9.41421L25.4142 29.4142C24.6332 30.1953 23.3668 30.1953 22.5858 29.4142L16.5858 23.4142C15.8047 22.6332 15.8047 21.3668 16.5858 20.5858C17.3668 19.8047 18.6332 19.8047 19.4142 20.5858L24 25.1716L42.5858 6.58579Z" fill="white"/>
<path d="M219.952 33.49L215.532 28.004L213.582 29.928V33.49H209.526V14.198H213.582V25.118L219.51 19.502H224.346L218.522 25.43L224.866 33.49H219.952Z" fill="white"/>
<path d="M201.026 33.698C196.476 33.698 193.226 30.708 193.226 26.496C193.226 22.284 196.476 19.294 201.026 19.294C203.964 19.294 206.278 20.568 207.292 22.856L204.146 24.546C203.392 23.22 202.274 22.622 201 22.622C198.946 22.622 197.334 24.052 197.334 26.496C197.334 28.94 198.946 30.37 201 30.37C202.274 30.37 203.392 29.798 204.146 28.446L207.292 30.162C206.278 32.398 203.964 33.698 201.026 33.698Z" fill="white"/>
<path d="M184.91 30.448C186.392 30.448 187.458 30.006 188.42 29.096L190.578 31.436C189.278 32.918 187.328 33.698 184.806 33.698C179.97 33.698 176.824 30.656 176.824 26.496C176.824 22.31 179.996 19.294 184.312 19.294C188.264 19.294 191.514 21.894 191.54 26.366L181.192 28.368C181.79 29.746 183.09 30.448 184.91 30.448ZM184.312 22.362C182.284 22.362 180.88 23.714 180.802 26.08L187.614 24.754C187.224 23.324 186.002 22.362 184.312 22.362Z" fill="white"/>
<path d="M168.237 19.294C171.539 19.294 174.035 21.218 174.035 25.482V33.49H169.979V26.106C169.979 23.844 168.939 22.804 167.145 22.804C165.195 22.804 163.791 24 163.791 26.574V33.49H159.735V14.198H163.791V20.958C164.883 19.866 166.443 19.294 168.237 19.294Z" fill="white"/>
<path d="M149.663 33.802C144.021 33.802 139.809 29.876 139.809 24.39C139.809 18.904 144.021 14.978 149.689 14.978C152.835 14.978 155.461 16.122 157.177 18.202L154.473 20.698C153.251 19.294 151.717 18.566 149.897 18.566C146.491 18.566 144.073 20.958 144.073 24.39C144.073 27.822 146.491 30.214 149.897 30.214C151.717 30.214 153.251 29.486 154.473 28.056L157.177 30.552C155.461 32.658 152.835 33.802 149.663 33.802Z" fill="white"/>
<path d="M131.192 19.294C134.494 19.294 136.99 21.218 136.99 25.482V33.49H132.934V26.106C132.934 23.844 131.894 22.804 130.1 22.804C128.15 22.804 126.746 24 126.746 26.574V33.49H122.69V19.502H126.564V21.14C127.656 19.944 129.294 19.294 131.192 19.294Z" fill="white"/>
<path d="M113.334 30.448C114.816 30.448 115.882 30.006 116.844 29.096L119.002 31.436C117.702 32.918 115.752 33.698 113.23 33.698C108.394 33.698 105.248 30.656 105.248 26.496C105.248 22.31 108.42 19.294 112.736 19.294C116.688 19.294 119.938 21.894 119.964 26.366L109.616 28.368C110.214 29.746 111.514 30.448 113.334 30.448ZM112.736 22.362C110.708 22.362 109.304 23.714 109.226 26.08L116.038 24.754C115.648 23.324 114.426 22.362 112.736 22.362Z" fill="white"/>
<path d="M96.9313 30.448C98.4133 30.448 99.4793 30.006 100.441 29.096L102.599 31.436C101.299 32.918 99.3493 33.698 96.8273 33.698C91.9913 33.698 88.8453 30.656 88.8453 26.496C88.8453 22.31 92.0173 19.294 96.3333 19.294C100.285 19.294 103.535 21.894 103.561 26.366L93.2133 28.368C93.8113 29.746 95.1113 30.448 96.9313 30.448ZM96.3333 22.362C94.3053 22.362 92.9013 23.714 92.8233 26.08L99.6353 24.754C99.2453 23.324 98.0233 22.362 96.3333 22.362Z" fill="white"/>
<path d="M82.7906 21.348C83.7786 19.996 85.4426 19.294 87.6006 19.294V23.038C87.2626 23.012 87.0026 22.986 86.6906 22.986C84.4546 22.986 82.9726 24.208 82.9726 26.886V33.49H78.9166V19.502H82.7906V21.348Z" fill="white"/>
<path d="M71.442 29.044V24.104H75.29V33.49H72.118V32.398C70.818 33.36 69.154 33.802 67.23 33.802C62.264 33.802 58 30.526 58 24.546C58 18.904 62.212 14.978 68.01 14.978C71.208 14.978 73.86 16.07 75.628 18.124L72.924 20.62C71.598 19.216 70.064 18.566 68.218 18.566C64.682 18.566 62.264 20.932 62.264 24.52C62.264 28.368 64.838 30.292 67.724 30.292C69.102 30.292 70.402 29.902 71.442 29.044Z" fill="white"/>
</svg>
