<svg width="32" height="33" viewBox="0 0 32 33" fill="none" xmlns="http://www.w3.org/2000/svg">
<path d="M21.2905 2.44363C20.5685 1.70769 19.9972 1.12524 19.2534 0.811785C18.5096 0.498326 17.7008 0.499114 16.6788 0.50011L15.9176 0.500224C13.2292 0.5002 11.0998 0.500181 9.43334 0.728144C7.71827 0.962752 6.33011 1.45706 5.23537 2.5709C4.14063 3.68473 3.65479 5.09711 3.42421 6.8421C3.20016 8.53766 3.20017 10.7042 3.2002 13.4394V19.5608C3.20017 22.296 3.20016 24.4626 3.42421 26.1581C3.65479 27.9031 4.14063 29.3155 5.23537 30.4293C6.33011 31.5432 7.71827 32.0375 9.43334 32.2721C11.0998 32.5 13.2291 32.5 15.9174 32.5H16.0826C18.7709 32.5 20.9004 32.5 22.5668 32.2721C24.2819 32.0375 25.6701 31.5432 26.7648 30.4293C27.8595 29.3155 28.3454 27.9031 28.576 26.1581C28.8 24.4626 28.8 22.2961 28.8 19.5609L28.8001 12.8328C28.8011 11.793 28.8018 10.9701 28.4938 10.2133C28.1857 9.45659 27.6132 8.87525 26.8899 8.14073L21.2905 2.44363Z" fill="#D0D5DD"/>
<path d="M28.7807 11.6628C28.7509 11.1353 28.6769 10.6626 28.4939 10.2133C28.1858 9.45655 27.6134 8.87522 26.8901 8.14069L21.2906 2.4436C20.5687 1.70766 19.9973 1.12521 19.2536 0.81175C18.8119 0.625633 18.3474 0.550301 17.8289 0.52002L17.8289 4.67046C17.8289 6.00772 17.8288 7.12283 17.9458 8.00808C18.0693 8.94246 18.3409 9.78606 19.0072 10.464C19.6734 11.1419 20.5026 11.4182 21.421 11.5438C22.291 11.6629 23.387 11.6628 24.7013 11.6628L28.7807 11.6628Z" fill="#047857"/>
<path d="M20.2946 17.466C19.7441 17.0893 18.9987 17.2394 18.63 17.7989L14.5991 23.9177L12.5226 21.673C12.0684 21.182 11.3088 21.1592 10.8268 21.6223C10.346 22.0843 10.3239 22.8552 10.777 23.3451L12.9265 25.6687C13.122 25.8802 13.347 26.1237 13.5658 26.301C13.8238 26.5101 14.2505 26.777 14.8273 26.7285C15.4039 26.68 15.7818 26.3454 16.0026 26.0962C16.1898 25.8848 16.3725 25.6071 16.5314 25.3657L20.6213 19.1573C20.9892 18.5989 20.8439 17.8419 20.2946 17.466Z" fill="#047857"/>
</svg>
